# xmcd
#
# Track frame offsets:
#	150
#	11544
#	24665
#	41027
#	53583
#	65507
#	81308
#	95310
#	111364
#	124728
#	137292
#	150812
#
# Disc length: 2170 seconds
# Revision: 0
# Processed by: cddbd v1.5.2PL0 Copyright (c) Steve Scherf et al.
# Submitted via: dBpowerAMP V12.0
#
DISCID=8d08780c
DTITLE=Thomas White - White's Diner
DYEAR=2012
DGENRE=Country
TTITLE0=Wild, Wild West Virginia
TTITLE1=One More Hillbilly
TTITLE2=Better You Sound
TTITLE3=What You Took  From Me
TTITLE4=Must Be Sunday Morning
TTITLE5=Turned To Steel And Stone
TTITLE6=Put The Hurtin In A Song
TTITLE7=Fall Back In Love With Me
TTITLE8=What's Right In America
TTITLE9=Big Train
TTITLE10=The Odds
TTITLE11=The Last One
EXTD=
EXTT0=
EXTT1=
EXTT2=
EXTT3=
EXTT4=
EXTT5=
EXTT6=
EXTT7=
EXTT8=
EXTT9=
EXTT10=
EXTT11=
PLAYORDER=
